<?xml version="1.0" standalone="no"?>
<!DOCTYPE svg PUBLIC "-//W3C//DTD SVG 20010904//EN"
 "http://www.w3.org/TR/2001/REC-SVG-20010904/DTD/svg10.dtd">
<svg version="1.0" xmlns="http://www.w3.org/2000/svg"
 width="1024.000000pt" height="1024.000000pt" viewBox="0 0 1024.000000 1024.000000"
 preserveAspectRatio="xMidYMid meet">
<metadata>
Created by potrace 1.11, written by Peter Selinger 2001-2013
</metadata>
<g transform="translate(0.000000,1024.000000) scale(0.100000,-0.100000)"
fill="#000000" stroke="none">
<path d="M0 5120 l0 -5120 5120 0 5120 0 0 5120 0 5120 -5120 0 -5120 0 0
-5120z m5223 4023 c72 -23 134 -69 195 -143 184 -224 336 -360 586 -522 82
-54 310 -171 617 -318 341 -164 570 -287 661 -355 15 -11 46 -33 68 -50 263
-192 450 -417 595 -710 138 -281 184 -470 201 -820 19 -416 -70 -905 -239
-1300 -28 -66 -59 -133 -69 -149 -16 -27 -18 -28 -24 -10 -76 223 -232 547
-353 731 -213 324 -491 609 -785 804 -214 142 -550 299 -641 299 -92 0 -145
-54 -145 -149 0 -30 106 -723 237 -1540 l236 -1486 1 -195 c1 -240 -18 -365
-90 -585 -112 -343 -321 -653 -594 -879 -157 -129 -369 -254 -545 -318 -161
-59 -249 -82 -425 -109 -465 -71 -984 67 -1395 371 -118 87 -290 266 -411 427
-75 100 -197 342 -240 473 -13 41 -28 89 -34 106 -11 34 -23 86 -50 224 -38
190 -22 535 34 741 8 30 22 80 31 112 37 134 178 420 260 527 19 25 46 61 59
80 13 19 90 103 171 185 86 88 154 167 165 190 10 22 28 96 39 165 27 156 102
474 116 488 1 2 6 -14 10 -36 15 -90 71 -132 250 -185 316 -95 406 -126 505
-178 197 -103 341 -307 397 -564 20 -93 28 -386 14 -495 -14 -98 -37 -227 -52
-285 -6 -22 -16 -65 -23 -95 -20 -83 -77 -250 -86 -250 -5 0 -20 31 -34 69
-15 37 -40 89 -56 115 -16 25 -39 65 -51 89 -52 102 -240 319 -326 376 -36 24
-58 31 -95 31 -65 0 -92 -16 -169 -97 -59 -63 -78 -89 -145 -193 -25 -39 -73
-149 -85 -195 -4 -16 -14 -55 -22 -85 -8 -30 -18 -94 -21 -141 -7 -87 7 -291
23 -331 5 -13 15 -43 22 -68 21 -74 109 -239 163 -304 118 -143 199 -206 367
-285 107 -50 114 -52 234 -76 138 -28 385 -13 512 30 322 109 581 400 654 735
6 30 13 118 16 195 l4 140 -426 2683 c-417 2631 -425 2684 -414 2749 35 201
185 356 377 388 73 12 143 5 225 -22z"/>
</g>
</svg>
